<svg width="140" height="140" viewBox="0 0 120 120" fill="none" xmlns="http://www.w3.org/2000/svg" size="140"><path d="M12.913 55.244c-5.632 2.95-8.246 6.284-8.246 9.44v9.72c0-3.156 2.614-6.49 8.246-9.44v-9.72Zm94.163-12.084v-9.726c5.934-3.19 8.981-6.891 8.981-10.725v9.72c0 3.84-3.047 7.543-8.981 10.732Z" fill="#0C296E"></path><path d="M60.229 19.059 48.73 49.922 60.365 72.92l-8.474 23.873H16.923a4 4 0 0 1-4-4V23.06a4 4 0 0 1 4-4H60.23Z" fill="#BBBFC4" fill-opacity="0.45"></path><path d="M71.408 19.059 60.013 49.922 71.46 72.92l-8.325 23.873h39.943a4 4 0 0 0 4-4V23.06a4 4 0 0 0-4-4h-31.67Z" fill="#BBBFC4" fill-opacity="0.45"></path><path d="M21.923 26.1a2 2 0 1 1 0 4 2 2 0 0 1 0-4Zm3 2a3 3 0 1 0-6 0 3 3 0 0 0 6 0Zm6.915-2a2 2 0 1 1 0 4 2 2 0 0 1 0-4Zm3 2a3 3 0 1 0-6 0 3 3 0 0 0 6 0Zm-15.763 7.394a.5.5 0 0 1 .5-.5h31.581a.5.5 0 0 1 0 1H19.575a.5.5 0 0 1-.5-.5Zm48.477 0a.5.5 0 0 1 .5-.5h32.465a.5.5 0 0 1 0 1H68.052a.5.5 0 0 1-.5-.5Z" fill="#8F959E"></path><path d="M98 111c9.941 0 18-8.059 18-18s-8.059-18-18-18c-9.942 0-18 8.059-18 18s8.058 18 18 18Z" fill="#F80"></path><path d="M97.181 84.818a.818.818 0 0 0-.818.819v9.818c0 .452.366.818.818.818h1.637a.818.818 0 0 0 .818-.818v-9.819a.818.818 0 0 0-.818-.818H97.18Zm0 13.092a.818.818 0 0 0-.818.818v1.636c0 .452.366.818.818.818h1.637a.818.818 0 0 0 .818-.818v-1.636a.818.818 0 0 0-.818-.819H97.18Z" fill="#fff"></path><path d="M4.027 85.31c2.49 5.51 14.77 9.94 41.45 9.93v9.721c-26.68.01-38.96-4.42-41.45-9.93v-9.72Zm84.81-27.27c17.52-2.69 25.807-7.026 27.2-11.71v9.72c-.33 4.67-9.68 9.02-27.2 11.71v-9.72Z" fill="#3370FF"></path><path d="M89.237 13.01c18.058 0 26.8 3.25 26.8 9.72v9.72c0-6.47-8.742-9.72-26.8-9.72v-9.72Zm-84.57 51.7c0 6.6 11.37 12.45 30.47 12.44v9.72c-19.1 0-30.47-5.84-30.47-12.44v-9.72Z" fill="#00D6B9"></path></svg>